<svg width="512.568" height="512.568" xmlns="http://www.w3.org/2000/svg">

 <g>
  <title>background</title>
  <rect fill="none" id="canvas_background" height="402" width="582" y="-1" x="-1"/>
 </g>
 <g>
  <title>Layer 1</title>
  <g id="svg_1">
   <g id="svg_2">
    <path id="svg_3" d="m511.266,330.047l-173.559,-295.051c-1.736,-2.603 -4.339,-4.339 -7.81,-4.339l-156.203,0c-3.471,0 -6.075,1.736 -7.81,3.471l-164.882,277.695c-0.868,2.603 -1.736,6.075 0,8.678l76.873,153.745c0.15,1.172 0.555,2.315 1.229,3.326c0.691,1.036 1.66,1.926 2.737,2.632c1.413,1.125 3.098,1.707 5.074,1.707l338.441,0c3.471,0 6.075,-1.736 7.81,-4.339l78.102,-138.847c1.734,-2.604 1.734,-6.075 -0.002,-8.678zm-22.562,-4.339l-144.922,0l-89.046,-159.188c-0.169,-1.061 -0.568,-2.134 -1.205,-3.09l-64.727,-115.417l135.886,0l164.014,277.695zm-165.213,0l-150.038,0l72.205,-139.28l77.833,139.28zm-150.074,-268.553l35.248,63.076l26.642,48.406l-83.309,160.285c-0.307,0.355 -0.601,0.726 -0.867,1.125l-64.294,123.94l-68.479,-136.957l155.059,-259.875zm246.731,407.4l-318.676,0l62.983,-121.492l174.12,0l150.129,0l-68.556,121.492z" fill="#4c5160"/>
   </g>
  </g>
  <g id="svg_4"/>
  <g id="svg_5"/>
  <g id="svg_6"/>
  <g id="svg_7"/>
  <g id="svg_8"/>
  <g id="svg_9"/>
  <g id="svg_10"/>
  <g id="svg_11"/>
  <g id="svg_12"/>
  <g id="svg_13"/>
  <g id="svg_14"/>
  <g id="svg_15"/>
  <g id="svg_16"/>
  <g id="svg_17"/>
  <g id="svg_18"/>
  <path id="svg_21" d="m68.783997,420.783997l131.216003,-239.783997l-50,-86l-133,221l51.783997,104.783997z" stroke-width="1.5" fill="#2fb67c"/>
  <path id="svg_30" d="m301.784,78.784l-95.784,-0.784l135,249l100,0c-47.072,-81.73867 -92.144,-166.47733 -139.216,-248.216z" fill-opacity="null" stroke-opacity="null" stroke-width="1.5" stroke="null" fill="#2fb67c"/>
  <path transform="rotate(-61.52214813232422 304.21588134765625,420.3458862304687) " id="svg_31" d="m285.13688,295.52265l-98.421,0.64646l135,249l100,0c-44.6879,-77.34367 -89.507,-167.90779 -136.579,-249.64646z" fill-opacity="null" stroke-opacity="null" stroke-width="1.5" stroke="null" fill="#2fb67c"/>
 </g>
</svg>