   <svg xmlns="http://www.w3.org/2000/svg" viewBox="0 0 168.26 126.32">
        <defs>
            <style>
                .cls-1{isolation:isolate;}.cls-2,.cls-3{fill:#30333d;stroke:#30333d;stroke-width: 0.1}.cls-3{fill-opacity:0.7;}.cls-3,.cls-4{mix-blend-mode:multiply;}.cls-4{fill:#2fb67c;stroke:#2fb67c;stroke-width: 0.1}
            </style>
        </defs>
        <title>
            Asset 1
        </title>
        <g class="cls-1">
            <g id="Layer_2" data-name="Layer 2">
                <g id="Layer_1-2" data-name="Layer 1">
                    <path d="M0,119.27a10.59,10.59,0,0,0,4.1-1.08A4.08,4.08,0,0,0,6,116a11.44,11.44,0,0,0,.43-4V84H28.22Q34,84,37.3,87.27t3.31,10.26V125.1H30.24V97q0-5.25-4.9-5.25H16.85v18.86a19,19,0,0,1-1.69,8.71A10.84,10.84,0,0,1,10,124.2a27.24,27.24,0,0,1-9.18,2.12Z" class="cls-2 letter" transform="translate(0)"/>
                    <path d="M46.66,92.41,45.79,84H56.16L57,92.41V125.1H46.66Z" class="cls-2 letter" transform="translate(0)"/>
                    <path d="M77.69,100.19a20.68,20.68,0,0,1,.54-4.93,10,10,0,0,1,1.47-3.49H61.27V84H95v7.78H89.42a21.28,21.28,0,0,0-1.36,8.42V125.1H77.69Z" class="cls-2 letter" transform="translate(0)"/>
                    <path d="M100,92.41,99.14,84h10.37l.86,8.42V125.1H100Z" class="cls-2 letter" transform="translate(0)"/>
                    <path d="M144.29,119.66q-8.35,5.66-24.34,6.16l-4-34L115,84h22.11q7,0,10.94,4t4.1,11l.08,2.38Q152.63,114,144.29,119.66ZM137,114.48a9.28,9.28,0,0,0,4-5,24,24,0,0,0,1-8.38V99a8.34,8.34,0,0,0-1.51-5.25,4.92,4.92,0,0,0-4.11-1.94h-9.93L129,116.61A17.47,17.47,0,0,0,137,114.48Z" class="cls-2 letter" transform="translate(0)"/>
                    <path d="M157.89,92.41,157,84H167.4l.86,8.42v11.24l-.07,4.53-10.3,1.8Z" class="cls-2 letter" transform="translate(0)"/>
                    <path d="M90.72,59.92V43.07a2.66,2.66,0,0,1,1.34-2.3l37.16-20.88V42.78L94.64,62.21A2.63,2.63,0,0,1,90.72,59.92Z" class="cls-3 logo" transform="translate(0)"/>
                    <path d="M90.72,2.63V19.48a2.66,2.66,0,0,0,1.34,2.3l37.16,20.88V19.77L94.64.34A2.63,2.63,0,0,0,90.72,2.63Z" class="cls-4 logo" transform="translate(0)"/>
                    <path d="M81.43,2.64V19.49a2.64,2.64,0,0,1-1.35,2.29L42.93,42.66V19.78L77.51.34A2.64,2.64,0,0,1,81.43,2.64Z" class="cls-3 logo" transform="translate(0)"/>
                    <path d="M81.43,59.79V42.94a2.64,2.64,0,0,0-1.35-2.29L42.93,19.77V42.65L77.51,62.09A2.64,2.64,0,0,0,81.43,59.79Z" class="cls-4 logo" transform="translate(0)"/>
                </g>
            </g>
        </g>
    </svg>